<svg viewBox="0 20 35 4.4" fill="none" xmlns="http://www.w3.org/2000/svg">
  <path d="M0.726921 23.8555V20.5726H1.52419V23.152H3.51267V23.8555H0.726921ZM4.70227 23.8555V20.5726H5.41512L6.85021 22.4438H6.39061L7.83038 20.5726H8.53385V23.8555H7.76003V22.7956C7.76003 22.5329 7.76629 22.2875 7.77879 22.0593C7.79442 21.831 7.81944 21.5997 7.85383 21.3652L7.93356 21.6231L6.77048 23.0582H6.46095L5.29319 21.6184L5.3823 21.3652C5.41981 21.5965 5.44483 21.8263 5.45733 22.0546C5.46984 22.2797 5.47609 22.5267 5.47609 22.7956V23.8555H4.70227ZM13.9708 23.9024C13.6925 23.9024 13.4346 23.8664 13.197 23.7945C12.9625 23.7195 12.7592 23.6116 12.5873 23.4709C12.4153 23.3271 12.2809 23.1489 12.184 22.9363C12.087 22.7205 12.0386 22.4751 12.0386 22.2C12.0386 21.9561 12.0886 21.7325 12.1886 21.5293C12.2918 21.323 12.4341 21.1432 12.6154 20.99C12.7999 20.8368 13.0156 20.718 13.2626 20.6336C13.5127 20.5491 13.7832 20.5069 14.074 20.5069C14.3116 20.5069 14.5289 20.5335 14.7258 20.5867C14.9228 20.6367 15.0963 20.7023 15.2464 20.7836C15.3996 20.8649 15.5247 20.954 15.6216 21.051L15.1385 21.5856C15.0447 21.5137 14.9431 21.4512 14.8337 21.398C14.7274 21.3417 14.6102 21.2964 14.482 21.262C14.3569 21.2276 14.2193 21.2104 14.0693 21.2104C13.9004 21.2104 13.7425 21.2354 13.5956 21.2854C13.4518 21.3355 13.3251 21.4058 13.2157 21.4965C13.1094 21.584 13.0266 21.6888 12.9672 21.8107C12.9078 21.9295 12.878 22.0593 12.878 22.2C12.878 22.3751 12.9093 22.5267 12.9718 22.6549C13.0375 22.7799 13.125 22.8831 13.2345 22.9644C13.3439 23.0426 13.469 23.102 13.6097 23.1426C13.7535 23.1801 13.9036 23.1989 14.0599 23.1989C14.2131 23.1989 14.3538 23.1833 14.482 23.152C14.6133 23.1207 14.7258 23.0785 14.8196 23.0254C14.9166 22.9691 14.9916 22.9034 15.0447 22.8284C15.0979 22.7502 15.1229 22.6643 15.1198 22.5705V22.4767L15.2276 22.6643H14.0036V22.0499H15.8842C15.8905 22.0937 15.8952 22.1437 15.8983 22.2C15.9014 22.2562 15.903 22.3063 15.903 22.35C15.903 22.3938 15.903 22.4235 15.903 22.4391C15.903 22.6768 15.8561 22.8878 15.7623 23.0723C15.6716 23.2536 15.5403 23.4052 15.3683 23.5272C15.1995 23.6491 14.9963 23.7429 14.7587 23.8086C14.521 23.8711 14.2584 23.9024 13.9708 23.9024ZM17.1184 23.8555V20.5726H18.938C19.1913 20.5726 19.407 20.6164 19.5852 20.7039C19.7666 20.7883 19.9057 20.9103 20.0026 21.0697C20.1027 21.226 20.1527 21.4105 20.1527 21.6231C20.1527 21.8326 20.098 22.0202 19.9885 22.1859C19.8822 22.3516 19.7369 22.4829 19.5524 22.5798C19.3711 22.6736 19.1663 22.7205 18.938 22.7205H17.8781V23.8555H17.1184ZM19.4117 23.8555L18.3518 22.3735L19.1819 22.2562L20.3356 23.8555H19.4117ZM17.8781 22.1109H18.8489C18.9396 22.1109 19.0224 22.0921 19.0975 22.0546C19.1725 22.0171 19.2335 21.9655 19.2804 21.8998C19.3273 21.831 19.3507 21.7513 19.3507 21.6606C19.3507 21.5762 19.3273 21.5027 19.2804 21.4402C19.2335 21.3746 19.171 21.3245 19.0928 21.2901C19.0146 21.2557 18.9255 21.2386 18.8255 21.2386H17.8781V22.1109ZM23.3338 23.9024C23.0368 23.9024 22.7664 23.8602 22.5225 23.7757C22.2786 23.6882 22.0676 23.5678 21.8894 23.4146C21.7112 23.2614 21.572 23.0816 21.472 22.8753C21.3751 22.6689 21.3266 22.4438 21.3266 22.2C21.3266 21.9561 21.3751 21.731 21.472 21.5246C21.572 21.3183 21.7112 21.1385 21.8894 20.9853C22.0707 20.8321 22.2818 20.7133 22.5225 20.6289C22.7664 20.5413 23.0353 20.4976 23.3292 20.4976C23.6199 20.4976 23.8872 20.5413 24.1311 20.6289C24.375 20.7133 24.586 20.8337 24.7642 20.99C24.9425 21.1432 25.08 21.323 25.1769 21.5293C25.277 21.7357 25.327 21.9592 25.327 22.2C25.327 22.4407 25.277 22.6643 25.1769 22.8706C25.08 23.077 24.9425 23.2583 24.7642 23.4146C24.586 23.5678 24.375 23.6882 24.1311 23.7757C23.8872 23.8602 23.6215 23.9024 23.3338 23.9024ZM23.3292 23.152C23.5011 23.152 23.6606 23.1285 23.8075 23.0816C23.9545 23.0316 24.0795 22.9644 24.1827 22.88C24.289 22.7924 24.3703 22.6908 24.4266 22.5751C24.486 22.4595 24.5157 22.3344 24.5157 22.2C24.5157 22.0655 24.486 21.9405 24.4266 21.8248C24.3703 21.7091 24.289 21.609 24.1827 21.5246C24.0795 21.4371 23.9545 21.3699 23.8075 21.323C23.6606 21.2729 23.5011 21.2479 23.3292 21.2479C23.1572 21.2479 22.9977 21.2729 22.8508 21.323C22.707 21.3699 22.5803 21.4371 22.4709 21.5246C22.3646 21.609 22.2833 21.7091 22.227 21.8248C22.1708 21.9405 22.1426 22.0655 22.1426 22.2C22.1426 22.3344 22.1708 22.4595 22.227 22.5751C22.2833 22.6908 22.3646 22.7924 22.4709 22.88C22.5803 22.9644 22.707 23.0316 22.8508 23.0816C22.9977 23.1285 23.1572 23.152 23.3292 23.152ZM28.2036 23.8836C27.869 23.8836 27.5767 23.818 27.3266 23.6866C27.0764 23.5553 26.881 23.374 26.7403 23.1426C26.6028 22.9081 26.534 22.6424 26.534 22.3453V20.5726H27.3406V22.3219C27.3406 22.4876 27.3766 22.6361 27.4485 22.7674C27.5235 22.8956 27.6267 22.9957 27.758 23.0676C27.8893 23.1395 28.0363 23.1754 28.1989 23.1754C28.3708 23.1754 28.5225 23.1395 28.6538 23.0676C28.7882 22.9957 28.8945 22.8956 28.9727 22.7674C29.0509 22.6361 29.0899 22.4876 29.0899 22.3219V20.5726H29.8684V22.3453C29.8684 22.6424 29.7981 22.9081 29.6574 23.1426C29.5198 23.374 29.326 23.5553 29.0759 23.6866C28.8257 23.818 28.535 23.8836 28.2036 23.8836ZM31.2886 23.8555V20.5726H33.1692C33.3881 20.5726 33.5835 20.6195 33.7554 20.7133C33.9305 20.8071 34.0696 20.9353 34.1728 21.0979C34.276 21.2604 34.3276 21.4433 34.3276 21.6466C34.3276 21.8654 34.2729 22.0624 34.1634 22.2375C34.054 22.4094 33.9055 22.5454 33.7179 22.6455C33.5334 22.7455 33.3255 22.7956 33.0942 22.7956H32.0858V23.8555H31.2886ZM32.0718 22.0968H32.9535C33.0535 22.0968 33.1442 22.078 33.2255 22.0405C33.3068 22.003 33.3709 21.9514 33.4178 21.8857C33.4678 21.8201 33.4928 21.7451 33.4928 21.6606C33.4928 21.5793 33.4678 21.5106 33.4178 21.4543C33.3709 21.398 33.3068 21.3542 33.2255 21.323C33.1442 21.2917 33.0535 21.2761 32.9535 21.2761H32.0718V22.0968Z" fill="black"/>
</svg>
